<svg id="Layer_1" data-name="Layer 1" xmlns="http://www.w3.org/2000/svg" viewBox="0 0 96 96"><defs><style>.cls-1{fill:#004282;}</style></defs><title>background-check</title><path class="cls-1" d="M96,84.38V11.25H84.75V0H11.25V11.25H0V84.38H30.19v.37a5.64,5.64,0,0,1-5.63,5.63H11.44V96H84.56V90.38H71.44a5.64,5.64,0,0,1-5.63-5.63v-.37Zm-5.62-67.5V67.5H84.75V16.88ZM79.13,5.63V67.5H16.88V5.63ZM11.25,16.88V67.5H5.63V16.88ZM5.63,73.13H90.38v5.62H5.63ZM61.7,90.38H34.3a11.2,11.2,0,0,0,1.51-5.63v-.37H60.19v.37A11.2,11.2,0,0,0,61.7,90.38Z"/><rect class="cls-1" x="48" y="45" width="22.69" height="5.63"/><rect class="cls-1" x="48" y="56.25" width="22.69" height="5.63"/><path class="cls-1" d="M42.38,45H22.5V61.88H42.38ZM36.75,56.25H28.13V50.63h8.62Z"/><path class="cls-1" d="M62.16,36.56A14.21,14.21,0,0,0,56.44,25.2V19.69a8.44,8.44,0,0,0-16.88,0V25.2a14.21,14.21,0,0,0-5.72,11.36v2.82H62.16ZM40,33.75a8.59,8.59,0,0,1,3.82-4.6l1.42-.81V19.69a2.81,2.81,0,1,1,5.62,0v8.65l1.42.81a8.59,8.59,0,0,1,3.82,4.6Z"/></svg>