<svg id="Capa_1" data-name="Capa 1" xmlns="http://www.w3.org/2000/svg" viewBox="0 0 512 512"><defs><style>.cls-1{fill:#004282;}</style></defs><title>form-absensi</title><path class="cls-1" d="M344.21,276.76l-43.58-19.37a8.53,8.53,0,0,1-5.06-7.8v-12a63.5,63.5,0,0,0,24-49.76V171a15.52,15.52,0,0,0,8-13.58V155.8A63.69,63.69,0,0,0,264,92.18H248a63.69,63.69,0,0,0-63.62,63.62v14.83a15.7,15.7,0,0,0,6,12.6,14.11,14.11,0,0,0,2,1.32v3.31a63.53,63.53,0,0,0,24.05,49.76v12a8.52,8.52,0,0,1-5.07,7.79l-43.58,19.37a39.61,39.61,0,0,0-23.5,36.16v99.4a7.5,7.5,0,0,0,15,0v-99.4a24.48,24.48,0,0,1,.15-2.58l20.09,20.08a16.46,16.46,0,0,1,4.84,11.7v70.2a7.5,7.5,0,1,0,15,0v-70.2a31.35,31.35,0,0,0-9.24-22.31l-23.94-23.94a24.56,24.56,0,0,1,7.69-5.4l42.85-19,31.77,31.77V412.31a7.5,7.5,0,0,0,15,0V303.19l31.78-31.77,42.84,19a24.5,24.5,0,0,1,7.69,5.4l-23.94,23.95a31.31,31.31,0,0,0-9.24,22.3v70.2a7.5,7.5,0,1,0,15,0v-70.2a16.43,16.43,0,0,1,4.85-11.7l20.08-20.08a24.48,24.48,0,0,1,.15,2.58v99.4a7.5,7.5,0,0,0,15,0v-99.4A39.58,39.58,0,0,0,344.21,276.76ZM256,289.48,228.12,261.6a23.52,23.52,0,0,0,3.32-12v-3.05a63.64,63.64,0,0,0,49.12,0v3.05a23.49,23.49,0,0,0,3.32,12Zm0-53a48.66,48.66,0,0,1-48.61-48.61v-3.37A44.48,44.48,0,0,0,221,175.65a7.5,7.5,0,0,0-10.18-11c-3.75,3.47-7.49,5.7-11.13,6.65a.68.68,0,0,1-.2,0,1.4,1.4,0,0,1-.13-.68V155.8A48.66,48.66,0,0,1,248,107.19h16a48.66,48.66,0,0,1,48.61,48.61v1.63a.49.49,0,0,1-.34.5c-44.91,8.86-67.44-7.85-75-15.45a7.5,7.5,0,1,0-10.6,10.6c23.29,23.29,57.27,23.71,78,21.23v13.55A48.66,48.66,0,0,1,256,236.47Z"/><path class="cls-1" d="M135.24,236v-16a55.61,55.61,0,0,0-25.49-46.71,31.54,31.54,0,1,0-60.21,0,55.58,55.58,0,0,0-25.49,46.7v16A55.56,55.56,0,0,0,48.1,281.7v16.49a8.5,8.5,0,0,1-4.72,7.64l-25.94,13A31.37,31.37,0,0,0,0,347v65.29a7.5,7.5,0,0,0,15,0V350.26l12.22,12.22a16.45,16.45,0,0,1,4.85,11.7v38.13a7.5,7.5,0,0,0,15,0V374.18a31.38,31.38,0,0,0-9.24-22.31l-17-17a2.61,2.61,0,0,0-.25-.23,16.24,16.24,0,0,1,3.58-2.43l25.94-13a23.94,23.94,0,0,0,3.72-2.32l18.34,18.34v77.06a7.5,7.5,0,0,0,15,0V335.26l18.33-18.34a23.94,23.94,0,0,0,3.72,2.32l7.16,3.58a7.41,7.41,0,0,0,3.34.79,7.5,7.5,0,0,0,3.36-14.21l-7.15-3.57a8.49,8.49,0,0,1-4.72-7.63V281.7A55.54,55.54,0,0,0,135.24,236Zm-55.6-88.7a16.57,16.57,0,0,1,16.55,16.55,17.06,17.06,0,0,1-.26,3,55.61,55.61,0,0,0-32.55,0,16.86,16.86,0,0,1-.28-2.95A16.57,16.57,0,0,1,79.64,147.26Zm0,32.07a40.64,40.64,0,0,1,40.6,40.6v2.72c-31.22,9.56-49.83-14.2-50.63-15.24a7.5,7.5,0,0,0-11.3-.8,49.07,49.07,0,0,1-19.24,12.28A40.64,40.64,0,0,1,79.64,179.33Zm0,142.22L62.31,304.21a23.53,23.53,0,0,0,.79-6V289a55.57,55.57,0,0,0,33.09,0v9.16a23.53,23.53,0,0,0,.79,6Zm0-45A40.64,40.64,0,0,1,39.05,236V234.4a60,60,0,0,0,24.1-12,67.86,67.86,0,0,0,13.91,10.12,59.64,59.64,0,0,0,28.66,7.4,63.16,63.16,0,0,0,14.46-1.73A40.65,40.65,0,0,1,79.64,276.55Z"/><path class="cls-1" d="M494.56,302.77l-42-21a8.49,8.49,0,0,1-4.72-7.63V263.52a47.46,47.46,0,0,0,16-35.58v-8.53h.52a7.5,7.5,0,0,0,7.5-7.5v-16a47.63,47.63,0,0,0-47.58-47.58h-16a47.63,47.63,0,0,0-47.58,47.58v16a7.5,7.5,0,0,0,7.5,7.5h.51v8.54a47.49,47.49,0,0,0,16,35.58v10.63a8.49,8.49,0,0,1-4.71,7.63A7.5,7.5,0,0,0,383.42,296a7.62,7.62,0,0,0,3.35-.79,23.9,23.9,0,0,0,3.71-2.33l18.34,18.34V412.32a7.5,7.5,0,0,0,15,0V311.21l18.34-18.34a23.48,23.48,0,0,0,3.72,2.32l40.61,20.31-12.32,12.32a31.38,31.38,0,0,0-9.24,22.31v62.18a7.5,7.5,0,0,0,15,0V350.13a16.45,16.45,0,0,1,4.85-11.7l11.67-11.67A16.84,16.84,0,0,1,497,331v81.33a7.5,7.5,0,0,0,15,0V331A31.36,31.36,0,0,0,494.56,302.77Zm-118.83-99.9v-7h0a32.61,32.61,0,0,1,32.58-32.58h16a32.62,32.62,0,0,1,32.58,32.58v8.33c-32.6-1.76-52.28-14.45-52.47-14.57a7.5,7.5,0,0,0-9.46.93A49.13,49.13,0,0,1,375.73,202.87Zm40.59,94.63L399,280.17a23.61,23.61,0,0,0,.78-6v-1.6a47.6,47.6,0,0,0,33.1,0v1.6a24.06,24.06,0,0,0,.78,6Zm0-37a32.62,32.62,0,0,1-32.58-32.58V215.85h0a63.45,63.45,0,0,0,17.6-10.74c7.88,4.1,24.36,11.18,47.56,13.52v9.31A32.61,32.61,0,0,1,416.32,260.52Z"/></svg>