<svg id="Layer_1" data-name="Layer 1" xmlns="http://www.w3.org/2000/svg" viewBox="0 0 96 96"><defs><style>.cls-1{fill:#004282;}</style></defs><title>form-evaluasi</title><g id="Outline"><path class="cls-1" d="M7.15,52.79a1.57,1.57,0,0,0,1.54-1.6V9.6H70.35v40a1.55,1.55,0,1,0,3.09,0V8a1.58,1.58,0,0,0-1.55-1.6H16.4V3.2H79.6V49.59a1.54,1.54,0,1,0,3.08,0V1.6A1.57,1.57,0,0,0,81.14,0H14.86a1.57,1.57,0,0,0-1.54,1.6V6.4H7.15A1.57,1.57,0,0,0,5.61,8V51.19A1.57,1.57,0,0,0,7.15,52.79Z"/><path class="cls-1" d="M71.89,92.78H8.69V57.59a1.54,1.54,0,1,0-3.08,0V94.38A1.57,1.57,0,0,0,7.15,96H71.89a1.6,1.6,0,0,0,0-3.2Z"/><path class="cls-1" d="M88.85,86.38h-20V57.59h20a1.6,1.6,0,0,0,0-3.2H67.27A1.57,1.57,0,0,0,65.73,56v1.6H62.94l-5.46-4.27-4.29-7.71a4.49,4.49,0,0,0-6.08-1.89,6.52,6.52,0,0,0-2.63,8.63c0,.08.08.16.13.24l2.78,5H39.52a4.71,4.71,0,0,0-4.62,4.8,4.9,4.9,0,0,0,1.18,3.2,4.91,4.91,0,0,0,0,6.4,4.91,4.91,0,0,0,0,6.4,4.92,4.92,0,0,0,.36,6.77,4.52,4.52,0,0,0,3.08,1.22H61.1a1.6,1.6,0,0,0,0-3.2H39.52a1.6,1.6,0,0,1,0-3.19,1.6,1.6,0,0,0,0-3.2,1.6,1.6,0,0,1,0-3.2,1.6,1.6,0,0,0,0-3.2,1.6,1.6,0,0,1,0-3.2,1.6,1.6,0,0,0,0-3.2,1.6,1.6,0,0,1,0-3.2H50.06a1.58,1.58,0,0,0,1.55-1.6,1.7,1.7,0,0,0-.21-.8L47.28,51a3.27,3.27,0,0,1,1.13-4.37l.12-.07a1.5,1.5,0,0,1,2,.66l4.45,8a1.57,1.57,0,0,0,.41.48l6.11,4.78a1.52,1.52,0,0,0,.93.32h3.31V88a1.57,1.57,0,0,0,1.54,1.6H88.85a1.6,1.6,0,0,0,0-3.2Z"/><ellipse class="cls-1" cx="76.52" cy="63.99" rx="1.54" ry="1.6"/><ellipse class="cls-1" cx="82.68" cy="63.99" rx="1.54" ry="1.6"/><path class="cls-1" d="M47.47,23.59a1.56,1.56,0,0,0-1.24-1.09L42.55,22l-1.64-3.46a1.57,1.57,0,0,0-2.76,0L36.5,22l-3.68.55A1.62,1.62,0,0,0,32,25.23l2.66,2.69L34,31.72a1.6,1.6,0,0,0,1.26,1.85,1.52,1.52,0,0,0,1-.16l3.28-1.79,3.29,1.79a1.51,1.51,0,0,0,2.08-.67,1.63,1.63,0,0,0,.16-1l-.63-3.8,2.66-2.69A1.64,1.64,0,0,0,47.47,23.59Zm-5.79,2.63a1.63,1.63,0,0,0-.44,1.41l.23,1.44-1.23-.67a1.48,1.48,0,0,0-1.44,0l-1.23.67.24-1.44a1.63,1.63,0,0,0-.44-1.41l-1-1L37.75,25a1.54,1.54,0,0,0,1.16-.87l.61-1.31.62,1.31A1.54,1.54,0,0,0,41.3,25l1.39.21Z"/><path class="cls-1" d="M64.43,31.59a1.57,1.57,0,0,0-1.25-1.09l-3.67-.56-1.64-3.45a1.58,1.58,0,0,0-2.2-.59,1.7,1.7,0,0,0-.57.59l-1.64,3.45-3.68.56a1.6,1.6,0,0,0-1.31,1.81,1.67,1.67,0,0,0,.45.92l2.67,2.69L51,39.72a1.59,1.59,0,0,0,1.26,1.85,1.49,1.49,0,0,0,1-.16l3.29-1.8,3.29,1.8a1.52,1.52,0,0,0,2.08-.67,1.63,1.63,0,0,0,.15-1l-.62-3.8L64,33.23A1.65,1.65,0,0,0,64.43,31.59Zm-5.79,2.63a1.62,1.62,0,0,0-.45,1.41l.24,1.44-1.23-.68a1.53,1.53,0,0,0-1.44,0l-1.23.68.24-1.44a1.62,1.62,0,0,0-.45-1.41l-1-1L54.7,33a1.51,1.51,0,0,0,1.16-.87l.62-1.31.62,1.31a1.53,1.53,0,0,0,1.16.87l1.39.21Z"/><path class="cls-1" d="M30.51,31.59a1.56,1.56,0,0,0-1.24-1.09l-3.68-.56L24,26.49a1.56,1.56,0,0,0-2.19-.59,1.61,1.61,0,0,0-.57.59l-1.65,3.45-3.67.56a1.59,1.59,0,0,0-1.31,1.81,1.67,1.67,0,0,0,.45.92l2.66,2.69L17,39.72a1.6,1.6,0,0,0,1.26,1.85,1.51,1.51,0,0,0,1-.16l3.28-1.8,3.29,1.8a1.52,1.52,0,0,0,2.09-.67,1.7,1.7,0,0,0,.15-1l-.63-3.8,2.66-2.69A1.64,1.64,0,0,0,30.51,31.59Zm-5.79,2.63a1.61,1.61,0,0,0-.44,1.41l.24,1.44-1.24-.68a1.51,1.51,0,0,0-1.43,0l-1.24.68.24-1.44a1.61,1.61,0,0,0-.44-1.41l-1-1L20.79,33A1.53,1.53,0,0,0,22,32.12l.62-1.31.61,1.31a1.54,1.54,0,0,0,1.17.87l1.38.21Z"/><path class="cls-1" d="M58,14.4a1.57,1.57,0,0,0-1.54-1.6H22.56a1.6,1.6,0,0,0,0,3.2H56.48A1.57,1.57,0,0,0,58,14.4Z"/><path class="cls-1" d="M27.19,64a1.57,1.57,0,0,0-1.54-1.6H17.94A1.57,1.57,0,0,0,16.4,64v8a1.57,1.57,0,0,0,1.54,1.6h7.71A1.57,1.57,0,0,0,27.19,72Zm-3.08,6.4H19.48v-4.8h4.63Z"/><path class="cls-1" d="M17.94,89.58h7.71A1.57,1.57,0,0,0,27.19,88V80a1.57,1.57,0,0,0-1.54-1.6H17.94A1.57,1.57,0,0,0,16.4,80v8A1.57,1.57,0,0,0,17.94,89.58Zm1.54-8h4.63v4.79H19.48Z"/><path class="cls-1" d="M31.46,47a1.51,1.51,0,0,0-2.17-.21h0l-8.17,7.07L19,51.66a1.5,1.5,0,0,0-2.18,0,1.63,1.63,0,0,0,0,2.22l2,2.07h-.9a1.6,1.6,0,0,0,0,3.2h7.71a1.6,1.6,0,0,0,0-3.2H23.43l7.83-6.77A1.65,1.65,0,0,0,31.46,47Z"/></g></svg>