<svg id="Layer_1" data-name="Layer 1" xmlns="http://www.w3.org/2000/svg" viewBox="0 0 841.89 595.28"><defs><style>.cls-1{fill:#004282;}.cls-1,.cls-2{fill-rule:evenodd;}.cls-2{fill:#00a651;}</style></defs><title>logo bpom asix asix</title><g id="Layer_2" data-name="Layer 2"><g id="Layer_11" data-name="Layer 11"><path class="cls-1" d="M256.54,275.65c34.92,30,79.39,57.68,130.6,16.54S472.4,171.53,480.09,109.1l43.54-26s3.53,131.11-41.19,239.78-102.36,124-102.36,124C321.39,403.29,275,337.25,256.54,275.65Z"/><path class="cls-2" d="M564.92,58.09c-.95,23-7.82,137.08-52.44,234.39-14.49,31.58-29.69,55.38-44,73.29a383.7,383.7,0,0,0,23.69-48.22c39.75-96.61,42.94-210.21,43-241.68Z"/><path class="cls-1" d="M591,42.52c-2.13,30.86-12.59,140.72-57.57,235.11-15.36,32.25-31.31,56.55-46.22,74.83q2.35-3.88,4.71-8c14.08-18.88,28.76-43.87,42.33-76.86,32.09-78,41.07-166.73,43.49-217.13Z"/></g><g id="Layer_10" data-name="Layer 10"><path class="cls-1" d="M156.16,505.08h3.31c2.83,0,4.93-.49,6.33-1.48a5.14,5.14,0,0,0,2.07-4.49c0-2.36-.64-4.05-1.94-5.06s-3.43-1.54-6.46-1.54h-3.31v12.57Zm0,28.5H160c2.71,0,4.73-.52,6.06-1.59a5.75,5.75,0,0,0,2-4.82c0-2.44-.69-4.26-2.07-5.44s-3.53-1.77-6.43-1.77h-3.41v13.62Zm-18.68,17.18V475.85h24.11q12.24,0,18.6,5.28t6.36,15.34a19.47,19.47,0,0,1-2.34,10,17.68,17.68,0,0,1-7.32,6.63,13.79,13.79,0,0,1,7.37,6,20.75,20.75,0,0,1,2.49,10.72q0,10.43-6.36,15.7t-19,5.27Z"/></g><g id="Layer_9" data-name="Layer 9"><path class="cls-1" d="M219.36,523.63H234.2l-7.45-25.27-7.39,25.27Zm-27.44,27.13,25.22-74.91h21.1l23.85,74.91H242.28l-2.61-8.38H214.14l-2.75,8.38Z"/></g><g id="Layer_8" data-name="Layer 8"><path class="cls-1" d="M287.14,530.75a16.93,16.93,0,0,0,15.95-17.6q0-7.78-4.42-12.76a15.13,15.13,0,0,0-11.53-5.16v35.52Zm-7.79-54.9a79.56,79.56,0,0,1,16.44,1.36,33.79,33.79,0,0,1,11,4.47,32.63,32.63,0,0,1,11.75,13.19,42.32,42.32,0,0,1,4,18.89,36.08,36.08,0,0,1-28.29,35.54,66.5,66.5,0,0,1-14.94,1.46H268.46V475.85Z"/></g><g id="Layer_7" data-name="Layer 7"><path class="cls-1" d="M350.93,523.63h14.85l-7.46-25.27-7.39,25.27Zm-27.44,27.13,25.22-74.91h21.1l23.85,74.91H373.85l-2.61-8.38H345.72L343,550.76Z"/></g><g id="Layer_6" data-name="Layer 6"><polygon class="cls-1" points="400.14 550.76 400.14 475.85 408.32 475.85 435.17 508.65 435.17 475.85 453.85 475.85 453.85 550.76 445.37 550.76 418.82 518.27 418.82 550.76 400.14 550.76"/></g><g id="Layer_5" data-name="Layer 5"><path class="cls-2" d="M513.62,511.89h2.22c3.07,0,5.46-.78,7.15-2.35a8.5,8.5,0,0,0,2.55-6.55,9,9,0,0,0-2.53-6.85c-1.68-1.59-4.1-2.37-7.27-2.37h-2.12v18.12Zm-18.68,38.87V475.85h18.78q15.45,0,23,6.62t7.52,20.29q0,13.2-7.3,20.55t-20.48,7.34h-2.81v20.11Z"/></g><g id="Layer_4" data-name="Layer 4"><path class="cls-2" d="M587.41,494.71a16,16,0,0,0-12.23,5.34,20.19,20.19,0,0,0,0,26.42,16.71,16.71,0,0,0,24.48,0,20.1,20.1,0,0,0,0-26.37,16,16,0,0,0-12.23-5.38Zm-.07-20.85a35.36,35.36,0,0,1,13,2.41,31.85,31.85,0,0,1,10.79,6.9,40.54,40.54,0,0,1,9.52,13.67,42.42,42.42,0,0,1,0,32.88,40.87,40.87,0,0,1-9.49,13.73,33.21,33.21,0,0,1-10.86,6.9,35.27,35.27,0,0,1-12.94,2.41,34.82,34.82,0,0,1-12.89-2.41,33.79,33.79,0,0,1-10.87-6.9,40.57,40.57,0,0,1-9.42-13.67,43,43,0,0,1,0-33,40.05,40.05,0,0,1,9.44-13.62,32.72,32.72,0,0,1,10.87-6.93A35,35,0,0,1,587.34,473.86Z"/></g><g id="Layer_3" data-name="Layer 3"><polygon class="cls-2" points="629.29 550.76 638.41 475.85 653.64 475.85 666.36 509.17 679.27 475.85 694.11 475.85 704.41 550.76 685.14 550.76 681.11 516.38 667.15 551.08 652.01 516.38 648.56 550.76 629.29 550.76"/></g></g></svg>